<svg width="12" height="9" viewBox="0 0 12 9" fill="none" xmlns="http://www.w3.org/2000/svg">
<path d="M11.3968 0.465874H0.752013C0.51579 0.465874 0.338623 0.657805 0.338623 0.879265V7.62639C0.338623 7.86261 0.530554 8.05455 0.766778 8.05455H11.4116C11.6478 8.05455 11.825 7.86261 11.825 7.64116V0.894029C11.825 0.657806 11.633 0.465874 11.3968 0.465874ZM6.0818 4.6736L2.30223 1.51411H9.86137L6.0818 4.6736ZM4.443 4.6736L1.38686 6.59292V2.11944L4.443 4.6736ZM5.28455 5.38227L5.53553 5.58897C5.69794 5.72184 5.88987 5.7809 6.0818 5.7809C6.27373 5.7809 6.46566 5.72184 6.62807 5.58897L6.87905 5.38227L9.49227 7.02107H2.70086L5.28455 5.38227ZM7.70584 4.6736L10.762 2.11944V6.59292L7.70584 4.6736Z" fill="white"/>
</svg>
