<svg width="12" height="13" viewBox="0 0 12 13" fill="none" xmlns="http://www.w3.org/2000/svg">
<path d="M11.5988 10.2548L9.71148 8.37567C9.56287 8.22771 9.29538 8.21292 9.08733 8.34608C8.44832 8.77517 7.27433 9.70733 6.35296 8.80476C5.74368 8.19812 5.55049 8.00577 4.98578 7.44352C4.42108 6.88127 4.22789 6.68892 3.6186 6.08228C2.69724 5.16492 3.64832 3.99602 4.07928 3.35979C4.22789 3.15264 4.19817 2.90111 4.04956 2.73835L2.16225 0.859244C1.96907 0.666894 1.61241 0.696488 1.40436 0.933226C-0.869322 3.58173 0.661327 5.2241 3.93067 8.47925C7.20002 11.7344 8.86442 13.2584 11.5096 10.9946C11.7622 10.8022 11.792 10.4471 11.5988 10.2548Z" fill="white"/>
</svg>
