<svg width="22" height="21" viewBox="0 0 22 21" fill="none" xmlns="http://www.w3.org/2000/svg">
<path d="M13.4167 12.8027C14.0863 12.133 14.4212 11.325 14.4212 10.3786C14.4212 9.43215 14.0863 8.62412 13.4167 7.95448C12.747 7.28483 11.939 6.95001 10.9926 6.95001C10.0462 6.95001 9.23812 7.28483 8.56848 7.95448C7.89883 8.62412 7.56401 9.43215 7.56401 10.3786C7.56401 11.325 7.89883 12.133 8.56848 12.8027C9.23812 13.4723 10.0462 13.8072 10.9926 13.8072C11.939 13.8072 12.747 13.4723 13.4167 12.8027ZM14.7292 6.64198C15.756 7.66876 16.2694 8.9143 16.2694 10.3786C16.2694 11.8429 15.756 13.0884 14.7292 14.1152C13.7024 15.142 12.4569 15.6554 10.9926 15.6554C9.5283 15.6554 8.28276 15.142 7.25598 14.1152C6.22919 13.0884 5.7158 11.8429 5.7158 10.3786C5.7158 8.9143 6.22919 7.66876 7.25598 6.64198C8.28276 5.61519 9.5283 5.1018 10.9926 5.1018C12.4569 5.1018 13.7024 5.61519 14.7292 6.64198ZM17.3542 4.01698C17.5953 4.25805 17.7158 4.54823 17.7158 4.88751C17.7158 5.2268 17.5953 5.51698 17.3542 5.75805C17.1131 5.99912 16.8229 6.11965 16.4837 6.11965C16.1444 6.11965 15.8542 5.99912 15.6131 5.75805C15.372 5.51698 15.2515 5.2268 15.2515 4.88751C15.2515 4.54823 15.372 4.25805 15.6131 4.01698C15.8542 3.7759 16.1444 3.65537 16.4837 3.65537C16.8229 3.65537 17.1131 3.7759 17.3542 4.01698ZM12.0104 1.94108C11.3944 1.94108 11.0551 1.94108 10.9926 1.94108C10.9301 1.94108 10.5863 1.94108 9.96133 1.94108C9.34526 1.93215 8.87651 1.93215 8.55508 1.94108C8.23366 1.94108 7.80062 1.95448 7.25598 1.98126C6.72026 1.99912 6.26044 2.04376 5.87651 2.11519C5.50151 2.17769 5.18455 2.25805 4.92562 2.35626C4.47919 2.53483 4.08633 2.79376 3.74705 3.13305C3.40776 3.47233 3.14883 3.86519 2.97026 4.31162C2.87205 4.57055 2.78723 4.89198 2.7158 5.2759C2.6533 5.6509 2.60865 6.11073 2.58187 6.65537C2.56401 7.19108 2.55062 7.61965 2.54169 7.94108C2.54169 8.26251 2.54169 8.73573 2.54169 9.36073C2.55062 9.9768 2.55508 10.3161 2.55508 10.3786C2.55508 10.4411 2.55062 10.7848 2.54169 11.4098C2.54169 12.0259 2.54169 12.4947 2.54169 12.8161C2.55062 13.1375 2.56401 13.5705 2.58187 14.1152C2.60865 14.6509 2.6533 15.1107 2.7158 15.4947C2.78723 15.8697 2.87205 16.1866 2.97026 16.4455C3.14883 16.892 3.40776 17.2848 3.74705 17.6241C4.08633 17.9634 4.47919 18.2223 4.92562 18.4009C5.18455 18.4991 5.50151 18.5839 5.87651 18.6554C6.26044 18.7179 6.72026 18.7625 7.25598 18.7893C7.80062 18.8072 8.23366 18.8205 8.55508 18.8295C8.87651 18.8295 9.34526 18.8295 9.96133 18.8295C10.5863 18.8205 10.9301 18.8161 10.9926 18.8161C11.0551 18.8161 11.3944 18.8205 12.0104 18.8295C12.6354 18.8295 13.1087 18.8295 13.4301 18.8295C13.7515 18.8205 14.1801 18.8072 14.7158 18.7893C15.2604 18.7625 15.7203 18.7179 16.0953 18.6554C16.4792 18.5839 16.8006 18.4991 17.0595 18.4009C17.506 18.2223 17.8988 17.9634 18.2381 17.6241C18.5774 17.2848 18.8363 16.892 19.0149 16.4455C19.1131 16.1866 19.1935 15.8697 19.256 15.4947C19.3274 15.1107 19.372 14.6509 19.3899 14.1152C19.4167 13.5705 19.4301 13.1375 19.4301 12.8161C19.439 12.4947 19.439 12.0259 19.4301 11.4098C19.4301 10.7848 19.4301 10.4411 19.4301 10.3786C19.4301 10.3161 19.4301 9.9768 19.4301 9.36073C19.439 8.73573 19.439 8.26251 19.4301 7.94108C19.4301 7.61965 19.4167 7.19108 19.3899 6.65537C19.372 6.11073 19.3274 5.6509 19.256 5.2759C19.1935 4.89198 19.1131 4.57055 19.0149 4.31162C18.8363 3.86519 18.5774 3.47233 18.2381 3.13305C17.8988 2.79376 17.506 2.53483 17.0595 2.35626C16.8006 2.25805 16.4792 2.17769 16.0953 2.11519C15.7203 2.04376 15.2604 1.99912 14.7158 1.98126C14.1801 1.95448 13.7515 1.94108 13.4301 1.94108C13.1087 1.93215 12.6354 1.93215 12.0104 1.94108ZM21.2113 6.13305C21.256 6.91876 21.2783 8.33394 21.2783 10.3786C21.2783 12.4232 21.256 13.8384 21.2113 14.6241C21.122 16.4813 20.5685 17.9188 19.5506 18.9366C18.5328 19.9545 17.0953 20.508 15.2381 20.5973C14.4524 20.642 13.0372 20.6643 10.9926 20.6643C8.94794 20.6643 7.53276 20.642 6.74705 20.5973C4.8899 20.508 3.4524 19.9545 2.43455 18.9366C1.41669 17.9188 0.863119 16.4813 0.773833 14.6241C0.729191 13.8384 0.706869 12.4232 0.706869 10.3786C0.706869 8.33394 0.729191 6.91876 0.773833 6.13305C0.863119 4.2759 1.41669 2.8384 2.43455 1.82055C3.4524 0.80269 4.8899 0.249118 6.74705 0.159833C7.53276 0.11519 8.94794 0.0928683 10.9926 0.0928683C13.0372 0.0928683 14.4524 0.11519 15.2381 0.159833C17.0953 0.249118 18.5328 0.80269 19.5506 1.82055C20.5685 2.8384 21.122 4.2759 21.2113 6.13305Z" fill="#AEB3B5"/>
</svg>
