<svg width="25" height="25" viewBox="0 0 25 25" fill="none" xmlns="http://www.w3.org/2000/svg">
<path d="M16.5798 17.858L18.5486 8.57677C18.6289 8.18392 18.5798 7.90267 18.4013 7.73302C18.2316 7.56338 18.0039 7.53213 17.7182 7.63927L6.1468 12.0991C5.88787 12.1973 5.7093 12.3089 5.61108 12.4339C5.5218 12.5589 5.51287 12.6795 5.5843 12.7955C5.65572 12.9027 5.79858 12.9875 6.01287 13.05L8.97269 13.9741L15.8432 9.6482C16.0307 9.5232 16.1736 9.49642 16.2718 9.56784C16.3343 9.61249 16.3164 9.67945 16.2182 9.76874L10.6602 14.7911L10.4459 17.8446C10.6513 17.8446 10.8522 17.7464 11.0486 17.55L12.495 16.1571L15.495 18.367C16.0664 18.6884 16.428 18.5187 16.5798 17.858ZM23.7048 7.69284C24.3388 9.17499 24.6557 10.7286 24.6557 12.3536C24.6557 13.9786 24.3388 15.5321 23.7048 17.0143C23.0709 18.4964 22.2182 19.7732 21.1468 20.8446C20.0754 21.9161 18.7986 22.7687 17.3164 23.4027C15.8343 24.0366 14.2807 24.3536 12.6557 24.3536C11.0307 24.3536 9.47715 24.0366 7.99501 23.4027C6.51287 22.7687 5.23608 21.9161 4.16465 20.8446C3.09322 19.7732 2.24055 18.4964 1.60662 17.0143C0.972689 15.5321 0.655725 13.9786 0.655725 12.3536C0.655725 10.7286 0.972689 9.17499 1.60662 7.69284C2.24055 6.2107 3.09322 4.93392 4.16465 3.86249C5.23608 2.79106 6.51287 1.93838 7.99501 1.30445C9.47715 0.670522 11.0307 0.353558 12.6557 0.353558C14.2807 0.353558 15.8343 0.670522 17.3164 1.30445C18.7986 1.93838 20.0754 2.79106 21.1468 3.86249C22.2182 4.93392 23.0709 6.2107 23.7048 7.69284Z" fill="#AEB3B5"/>
</svg>
